# xmcd
#
# Track frame offsets:
#	150
#	5915
#	29520
#	47140
#	69409
#	80799
#	106653
#	123697
#	141389
#	160724
#
# Disc length: 2298 seconds
# Revision: 0
# Processed by: cddbd v1.5.2PL0 Copyright (c) Steve Scherf et al.
# Submitted via: dBpowerAMP V12.0
#
DISCID=8b08f80a
DTITLE=Matthieu Brandt - Languish Lives
DYEAR=2009
DGENRE=Americana
TTITLE0=Too Close For Comfort
TTITLE1=Haystack In The Needle
TTITLE2=Poor Misguided Fool
TTITLE3=Nostalgia
TTITLE4=Sketches Of Pain
TTITLE5=Alvarado Ladies
TTITLE6=10-01-91
TTITLE7=Double Cross
TTITLE8=Open Seas
TTITLE9=Matthews's Journey
EXTD=
EXTT0=
EXTT1=
EXTT2=
EXTT3=
EXTT4=
EXTT5=
EXTT6=
EXTT7=
EXTT8=
EXTT9=
PLAYORDER=
